<?xml version="1.0" encoding="utf-8" ?><svg xmlns="http://www.w3.org/2000/svg" xmlns:xlink="http://www.w3.org/1999/xlink" width="1440" height="600" viewBox="0 0 1440 600"><path fill="#FF8526" d="M250.766 108.377C253.305 108.224 257.782 108.825 259.932 110.014C286.498 124.704 313.067 141.704 338.982 157.389L398.798 193.96C407.216 199.09 438.536 216.917 442.546 222.468C444.038 224.515 444.612 227.091 444.13 229.577C441.676 241.799 408.733 258.044 397.205 265.671C412.023 277.309 429.849 284.313 444.494 296.296C444.746 299.781 444.512 303.26 444.363 306.753C436.607 316.628 409.37 330.744 397.77 337.202C411.739 346.625 432.889 356.58 444.495 366.595C445.009 373.825 445.839 378.631 439.151 382.979C427.225 390.733 414.775 397.512 402.529 404.74L335.695 444.54C312.954 458.117 276.004 483.04 253.162 492.878C244.489 492.725 215.339 473.176 206.459 467.754L142.872 429.193C129.074 420.843 115.226 412.577 101.328 404.395C89.3396 397.395 71.4787 387.472 61.1156 378.841C60.8849 375.299 61.1188 370.357 61.1964 366.693C73.6923 356.721 94.1143 345.497 108.176 337.307C42.2497 299.188 48.1699 302.44 108.88 265.848C95.1239 257.136 69.3935 245.792 60.8381 231.246C59.8529 229.571 59.436 226.535 60.2871 224.666C62.1662 220.537 70.5159 215.088 74.5177 212.479C85.6625 205.216 97.5409 198.411 108.988 191.604L166.896 157.032L213.357 129.094C225.912 121.536 237.248 114.139 250.766 108.377ZM254.808 322.438C276.429 310.342 297.846 296.394 319.112 283.491L408.7 229.858C376.092 209.339 343.318 189.086 310.38 169.102C302.097 164.041 257.653 135.536 251.871 135.589C223.81 151.636 195.983 168.089 168.399 184.943C145.057 199.055 120.568 213.586 97.7993 228.465C107.878 236.447 121.226 243.268 132.442 249.94L189.333 284.224C202.4 292.205 215.399 300.298 228.328 308.5C233.094 311.494 248.42 321.538 252.865 322.876C253.257 322.799 254.533 322.583 254.808 322.438ZM132.289 351.747C121.058 359.055 109.648 366.083 98.0687 372.827L208.01 438.76C220.317 446.117 239.594 459.558 251.694 465.308C291.94 443.422 333.027 416.299 373.044 393.188C383.623 386.827 398.58 379.293 408.173 372.874C397.335 365.992 386.445 359.192 375.503 352.476C349.651 364.995 325.966 381.101 301.252 395.639C285.137 405.118 269.064 416.089 252.268 424.218C236.769 416.164 221.614 406.397 206.71 397.22C182.034 381.849 157.226 366.691 132.289 351.747ZM98.4874 301.459C132.671 323.163 167.379 344.14 202.215 364.782C216.327 373.144 238.25 388.219 252.144 395.181C291.901 372.343 331.089 346.815 370.795 324.724C383.316 317.436 395.763 310.019 408.132 302.475C396.728 295.091 385.188 287.919 373.518 280.963C362.409 286.46 350.659 293.885 339.916 300.328L291.315 329.568C282.883 334.678 257.246 353.119 248.843 349.119C223.028 336.831 197.811 317.857 172.599 303.779C159.186 296.289 147.08 286.618 133.256 280.021C121.805 287.389 110.213 294.536 98.4874 301.459Z"/><path fill="#FF8526" d="M1000.76 218.315C1018.45 217.789 1037.7 220.052 1049.6 234.7C1055.51 241.97 1057.07 249.209 1059.24 258.029L1034.62 257.976C1029.41 248.167 1022.28 239.832 1010.87 240.371C978.761 241.888 983.176 271.159 1011.79 276.93C1022.82 279.155 1045.93 289.021 1053.34 296.635C1073.09 316.895 1061.35 354.868 1034.35 362.639C1025.46 365.25 1021.47 365.634 1012.34 365.664C978.332 365.314 961.592 359.049 954.81 324.132C962.997 323.985 971.454 324.117 979.664 324.149C981.033 326.703 982.565 330.361 984.345 332.526C996.749 347.617 1015.86 347.319 1030.39 336.54C1031.76 332.701 1033.6 325.998 1032.71 321.873C1028.11 300.618 987.446 301.148 972.063 288.076C965 282.852 961.587 277.108 960.215 268.3C955.559 238.409 972.125 222.654 1000.76 218.315Z"/><path fill="#FF8526" d="M627.915 259.824C628.818 259.764 629.723 259.73 630.629 259.723C658.967 259.51 676.861 273.14 675.726 302.317C674.954 322.174 675.48 343.419 675.595 363.393C667.739 364.876 656.401 365.303 648.514 364.232L648.193 354.079C639.245 361.965 632.021 365.684 619.861 365.956C605.783 366.27 594.18 362.67 586.681 350.081C585.2 346.536 584.226 340.05 584.185 336.218C583.831 302.833 625.068 301.49 648.666 300.961C645.169 278.226 636.825 276.926 616.907 284.418C615.446 286.248 613.333 289.83 612.012 291.922C607.06 292.285 590.58 294.146 588.067 290.094C586.361 268.781 611.607 261.792 627.915 259.824ZM631.106 346.381C645.7 338.709 648.699 335.815 648.296 318.503C642.316 318.482 634.733 318.251 628.898 318.769C602.233 324.739 610.321 350.785 631.106 346.381Z"/><path fill="#FF8526" d="M825.16 259.79C827.056 259.695 828.956 259.686 830.853 259.763C867.302 261.544 876.513 285.732 874.695 318.846C854.016 320.132 827.632 318.474 805.949 318.683C812.707 345.538 828.127 352.842 851.119 335.417C857.823 334.822 864.719 334.978 871.46 335.005C872.7 335.327 872.731 335.351 873.624 336.306C874.003 340.2 870.818 344.584 868.541 347.648C861.353 357.398 850.546 363.846 838.555 365.538C810.202 369.72 783.212 353.83 780.42 324.128C777.028 288.039 787.869 264.818 825.16 259.79ZM806.676 300.184L830.215 300.247C835.624 300.399 847.19 302.434 849.46 297.163C849.337 289.417 837.579 279.463 829.905 280.452C828.447 280.64 827.032 280.656 825.547 280.85C814.18 282.487 810.368 290.334 806.676 300.184Z"/><path fill="#FF8526" d="M1327.74 259.802C1328.83 259.667 1329.92 259.582 1331.02 259.547C1370.6 258.303 1377.59 284.616 1378.4 318.509L1309.89 318.961C1315.5 348.081 1332.83 349.767 1355.28 335.605L1372.4 335.204C1373.78 335.296 1374.01 335.317 1375.29 335.833C1376.42 339.489 1373.65 343.483 1371.6 346.451C1355.74 369.212 1324.09 372.167 1301.93 356.718C1279.52 341.093 1279.37 297.041 1293.8 276.21C1301.32 265.361 1315.04 261.486 1327.74 259.802ZM1309.69 300.158L1333.48 300.239L1352.17 300.313C1348.8 286.493 1345.31 280.056 1329.76 280.703C1316.01 284.991 1315.42 287.813 1309.69 300.158Z"/><path fill="#FF8526" d="M755.658 260.309C758.727 261.174 779.622 261.492 783.38 261.079C775.352 284.732 743.116 381.444 728.816 396.075C719.257 405.856 703.915 405.764 691.241 406.04C691.121 398.319 691.088 390.598 691.141 382.877C705.09 384.728 710.218 381.241 717.161 369.624L711.233 351.876C701.633 322.472 687.058 290.167 678.67 261.586C688.301 260.966 697.56 260.7 707.207 261.334C715.694 279.887 721.679 315.612 729.87 337.41C739.361 316.95 745.468 276.998 755.658 260.309Z"/><path fill="#FF8526" d="M1152.94 260.571C1154.87 260.289 1160.14 260.49 1162.32 260.519C1164.5 291.789 1162.63 332.411 1162.34 364.367C1152.2 364.447 1144.23 364.841 1134.12 365.683L1136.09 354.233C1135.5 354.769 1134.9 355.297 1134.3 355.818C1123.91 364.835 1117.04 365.926 1103.33 365.562C1075.16 364.812 1070.74 328.176 1072.47 306.515C1074.06 291.776 1073.56 276.275 1073.49 261.398C1082.67 261.577 1091.12 261.664 1100.27 261.148C1100.46 278.273 1100.03 295.432 1100.19 312.593C1100.3 323.934 1100.97 344.597 1116.99 344.093C1125.59 343.822 1129.08 339.761 1134.49 333.929C1136.68 309.201 1134.17 285.14 1135.48 261.079C1141.93 261.141 1146.46 261.054 1152.94 260.571Z"/><path fill="#FF8526" d="M497.286 219.4C507.078 219.677 517.485 219.513 527.324 219.519C527.915 259.674 526.943 300.119 527.584 340.59L581.415 340.618L581.429 364.583L496.999 364.431C497.739 344.945 497.295 323.724 497.221 304.088L497.286 219.4Z"/><path fill="#FF8526" d="M1230.45 231.963C1239.24 232.532 1248.73 232.335 1257.61 232.302L1257.82 261.307C1266.27 260.832 1272.02 260.733 1280.38 261.852C1280.61 268.936 1280.48 276.316 1280.46 283.423C1273.02 283.282 1265.58 283.337 1258.14 283.586C1259.78 296.584 1257.44 310.929 1257.11 323.965C1256.65 342.116 1265.69 343.55 1280.53 343.412L1280.48 357.788C1280.53 360.304 1280.52 361.057 1280.08 363.524C1274.33 367.767 1236.47 365.771 1233.21 350.631C1228.43 328.384 1230.64 306.345 1230.3 283.45L1214.27 283.424C1214.56 275.687 1214.41 268.852 1214.19 261.11L1229.82 261.05C1230.85 253.693 1230.48 239.919 1230.45 231.963Z"/><path fill="#FF8526" d="M936.019 261.256C939.913 261.019 944.327 261.21 948.271 261.296C948.721 269.057 948.605 277.091 948.613 284.881C931.836 284.164 925.74 282.998 915.661 298.018C914.98 319.367 915.542 342.884 915.634 364.388C906.92 364.195 897.293 363.822 888.746 365.257C888.453 362.272 888.312 359.358 888.205 356.363C887.072 324.751 887.811 293.099 888.09 261.472C895.165 261.665 908.974 259.197 914.215 263.574C916.782 265.717 916.069 271.196 915.947 274.425C923.144 266.752 925.487 262.426 936.019 261.256Z"/><path fill="#FF8526" d="M1178.39 261.158C1184.38 261.015 1202.42 259.912 1206.88 262.939C1209.14 270.621 1207.39 291.075 1207.55 299.997C1207.92 321.113 1208.19 342.084 1207.49 363.194C1200.53 365.423 1186.04 364.695 1178.42 364.483C1177.7 330.045 1177.68 295.596 1178.39 261.158Z"/><path fill="#FF8526" d="M1191.97 216.227C1201.08 215.953 1208.68 223.136 1208.93 232.251C1209.17 241.366 1201.97 248.945 1192.85 249.16C1183.78 249.373 1176.25 242.207 1176.01 233.133C1175.76 224.06 1182.9 216.5 1191.97 216.227Z"/></svg>