<?xml version="1.0" encoding="utf-8" ?><svg xmlns="http://www.w3.org/2000/svg" xmlns:xlink="http://www.w3.org/1999/xlink" width="500" height="500" viewBox="0 0 500 500"><path fill="#FF8526" d="M251.185 59.2846C259.585 58.5544 269.842 66.1785 276.841 70.4716L293.506 80.5653L345.307 112.061C365.069 124.018 384.764 136.088 404.389 148.269C414.736 154.607 425.361 160.514 435.451 167.263C438.017 168.98 440.81 170.868 442.645 173.398C444.2 175.543 444.846 178.216 444.332 180.829C441.9 193.191 408.22 209.124 397.408 216.569C408.028 225.474 423.225 232.282 434.846 240.097C437.354 241.783 442.323 244.972 444.292 247.115C446.505 256.228 444.161 259.588 437.019 264.862C424.734 273.934 411.16 280.547 397.998 288.117C407.05 294.951 418.216 300.014 427.861 306.015C433.466 309.502 439.636 312.878 444.385 317.523C445.116 321.283 445.602 326.477 443.688 329.969C442.383 332.348 438.438 334.722 436.044 336.22C424.774 343.266 412.999 349.615 401.579 356.385L328.748 399.807C310.839 410.477 293.317 422.316 275.161 432.59C269.429 435.834 258.265 442.481 252.236 444.134C248.973 443.6 245.101 442.265 242.26 440.586C232.362 434.738 222.518 428.62 212.689 422.652L147.713 383.197L102.918 356.307C93.5714 350.819 84.0214 345.603 74.8819 339.74C70.2085 336.741 65.0627 333.623 61.1048 329.726C60.7928 327.51 60.7751 325.348 60.8014 323.123C60.8398 319.864 60.7643 317.684 63.6062 315.568C73.3288 308.328 83.9518 302.124 94.4594 296.092C98.7372 293.636 103.629 290.433 108.015 288.44C97.7471 281.454 67.2694 266.68 61.704 257.018C60.6025 255.105 60.0827 253.162 60.6926 250.993C63.5943 240.676 98.3793 223.028 108.779 216.884L85.2849 203.188C77.3838 198.495 62.5902 189.049 59.729 179.871C57.6101 173.075 71.6352 165.024 76.777 161.681C84.7138 156.522 93.5167 151.584 101.782 146.697L139.434 124.195L198.646 88.7151L216.282 78.1403C223.345 73.8267 244.29 60.6921 251.185 59.2846ZM98.1182 179.472C106.563 186.266 113.854 189.992 123.264 195.351C128.478 198.365 133.655 201.441 138.795 204.578C166.935 221.288 194.869 238.342 222.591 255.735C226.875 258.429 250.397 273.877 253.502 274.012L254.146 273.744C257.143 271.473 263.367 268.592 266.909 266.396C274.66 261.591 282.42 256.845 290.144 251.984C313.301 237.659 336.578 223.531 359.975 209.602C371.035 202.925 382.136 196.314 393.276 189.77C398.148 186.915 403.743 183.495 408.655 180.849L304.434 116.626L277.482 100.11C273.469 97.6302 256.486 86.2606 252.363 86.7293C248.433 88.2717 240.734 92.9857 236.712 95.3198C225.805 101.71 214.932 108.158 204.094 114.664C179.562 129.279 155.122 144.049 130.777 158.975C123.759 163.237 116.765 167.54 109.795 171.883C106.44 173.974 101.127 177.157 98.1182 179.472ZM132.137 302.97C122.353 309.143 108.076 318.852 97.9435 323.807C117.395 334.599 137.745 347.504 156.805 359.07L210.36 391.017C219.838 396.792 229.132 403.027 238.671 408.704C241.111 410.155 249.276 415.412 251.793 415.986C254.48 414.868 261.702 410.535 264.362 408.939L283.233 397.653C300.835 387.264 318.364 376.751 335.818 366.115C347.564 358.982 361.08 350.468 373.077 343.897L401.658 327.67C403.739 326.49 406.054 324.976 408.027 323.898C397.295 317.035 386.487 310.289 375.607 303.664C362.88 308.967 346.224 319.503 334.333 326.722L283.704 357.372C274.106 363.189 264.289 369.564 254.092 374.315C252.875 374.882 251.435 374.713 250.233 374.191C246.197 372.283 242.121 369.894 238.284 367.626C230.585 363.02 222.936 358.332 215.338 353.562C207.715 348.87 134.189 303.255 132.137 302.97ZM408.18 253.553L390.323 242.253C384.781 238.809 378.989 235.447 373.512 231.949C360.715 238.81 349.371 245.808 336.952 253.282L289.293 281.857C278.287 288.391 267.937 297.094 255.461 300.518C253.51 301.053 251.056 301.113 249.179 300.349C234.812 294.499 221.517 284.574 208.37 276.525C191.777 266.368 175.421 256.83 159.063 246.391C153.893 243.091 138.486 233.15 133.333 231.25C128.923 233.673 123.731 237.259 119.367 239.985C112.484 244.25 105.535 248.407 98.5228 252.456C110.033 259.102 122.382 267.593 133.97 274.626L210.163 320.43C218.49 325.524 226.78 330.678 235.032 335.892C239.044 338.41 248.015 344.271 252.025 345.771C254.275 344.97 259.05 341.98 261.443 340.6C268.298 336.659 275.115 332.654 281.893 328.584L343.258 291.437C352.067 286.215 362.642 279.713 371.621 275.093C377.529 271.181 385.394 266.973 391.633 263.172C395.568 260.776 404.41 255.28 408.18 253.553Z"/></svg>